<svg xmlns="http://www.w3.org/2000/svg" height="90" width="225"><defs><clipPath id="A"><path d="M12.496 12.496H624.78v858.898H12.496V12.496z"/></clipPath></defs><g transform="matrix(1.255996 0 0 -1.254854 -61.97929 1047.230347)"><path d="M175.857 823.31h52.63l-7.962-51.918-44.668-8.57v60.49z" fill="#009346"/><path d="M172.863 825.42h52.63l-4.968-53.804-47.662-6.686v60.5z" fill="#f78d11"/><g clip-path="url(#A)"><g fill="#00a650"><path d="M63.312 791.228c.63 0 1.2.108 1.7.324a4.77 4.77 0 0 1 1.36.869c.397.362.736.786 1.017 1.272s.512.994.693 1.525.316 1.076.404 1.632.13 1.1.13 1.605a11.68 11.68 0 0 1-.167 1.956 11.17 11.17 0 0 1-.5 1.921c-.222.62-.506 1.2-.85 1.737a6.71 6.71 0 0 1-1.201 1.412c-.456.403-.976.722-1.562.956s-1.234.35-1.947.35c-.667 0-1.266-.106-1.798-.315s-1.003-.498-1.412-.86a5.4 5.4 0 0 1-1.044-1.255 7.68 7.68 0 0 1-.702-1.509c-.18-.532-.315-1.073-.403-1.622s-.133-1.075-.133-1.58c0-.643.06-1.3.176-1.973a10.63 10.63 0 0 1 .527-1.939 9.1 9.1 0 0 1 .886-1.754c.356-.55.772-1.03 1.246-1.438s1.008-.73 1.604-.965 1.252-.35 1.966-.35m-3.614-10.613c-.83-.223-1.618-.544-2.36-.966s-1.4-.932-1.972-1.535-1.027-1.3-1.36-2.06a6.31 6.31 0 0 1-.499-2.526c0-1.123.248-2.09.745-2.904s1.14-1.488 1.93-2.026a8.57 8.57 0 0 1 2.64-1.193c.97-.257 1.93-.386 2.877-.386 1.287 0 2.515.196 3.685.588s2.196.936 3.078 1.632a8.08 8.08 0 0 1 2.106 2.464 6.35 6.35 0 0 1 .78 3.106c0 .63-.128 1.173-.386 1.623s-.61.84-1.06 1.174-.985.617-1.605.85-1.298.45-2.035.65l-3.15.736-3.41.773M71.24 805.14c.596-.854 1.012-1.713 1.246-2.58s.35-1.743.35-2.63c0-.924-.126-1.828-.377-2.71s-.61-1.72-1.07-2.508a11.04 11.04 0 0 0-1.666-2.175 11.26 11.26 0 0 0-2.168-1.72 10.76 10.76 0 0 0-2.56-1.132 10.07 10.07 0 0 0-2.86-.404l-.763.036-.78.088a4.7 4.7 0 0 1-1.123-.368 4.09 4.09 0 0 1-.895-.579c-.258-.223-.457-.46-.597-.71s-.2-.505-.2-.762c0-.515.2-.954.605-1.317s.944-.678 1.623-.947 1.465-.505 2.36-.7l5.395-1.202 2.438-.684a14.28 14.28 0 0 0 2.141-.903c.655-.345 1.222-.75 1.702-1.21a5.03 5.03 0 0 0 1.122-1.614c.27-.614.404-1.324.404-2.13 0-1.018-.184-1.997-.553-2.94s-.886-1.82-1.553-2.64a12.94 12.94 0 0 0-2.385-2.246c-.925-.678-1.942-1.26-3.053-1.745a18.04 18.04 0 0 0-3.553-1.122c-1.257-.264-2.552-.395-3.885-.395-.772 0-1.585.055-2.438.166a17.02 17.02 0 0 0-2.527.527c-.83.24-1.623.55-2.377.93s-1.422.84-2 1.377a6.21 6.21 0 0 0-1.377 1.859c-.34.702-.508 1.503-.508 2.404 0 .748.123 1.468.368 2.157a8.12 8.12 0 0 0 .991 1.931c.416.596.898 1.152 1.448 1.666a13.41 13.41 0 0 0 1.745 1.386 14.26 14.26 0 0 0 1.877 1.062c.638.298 1.255.535 1.85.7l.035.087c-.433.188-.856.4-1.27.64s-.8.524-1.123.85a4.08 4.08 0 0 0-.808 1.114c-.204.415-.307.886-.307 1.412a3.14 3.14 0 0 0 .413 1.605c.275.474.623.895 1.044 1.263a7.34 7.34 0 0 0 1.386.956l1.455.702c-.9.35-1.704.8-2.412 1.35s-1.303 1.176-1.79 1.878-.857 1.465-1.114 2.29-.386 1.688-.386 2.587c0 1.533.298 2.95.895 4.255s1.4 2.43 2.412 3.377 2.184 1.7 3.517 2.228 2.737.806 4.21.806a9 9 0 0 0 1.543-.122c.468-.082.9-.185 1.3-.307a10.35 10.35 0 0 0 1.097-.404l.938-.43 1.307-.588c.427-.17.92-.254 1.483-.254.468 0 .918.075 1.35.227a3.46 3.46 0 0 1 1.14.658 3.12 3.12 0 0 1 .78 1.053c.193.415.29.886.29 1.413l-.008.227-.026.246.227.158c.808-.374 1.407-.84 1.8-1.395s.588-1.113.588-1.674c0-.446-.088-.84-.263-1.185s-.424-.64-.746-.886-.705-.433-1.15-.56-.935-.193-1.474-.193c-.818 0-1.7.164-2.648.49l-.07-.088z"/><path d="M81.877 782.807l-.28.017.263 3.632.228 4 .184 4.017.14 3.72.087 3.096.026 2.16-.052 1.123c-.035.315-.114.58-.236.788s-.302.366-.536.465-.55.15-.947.15a5.41 5.41 0 0 1-.614-.036l-.702-.105-.868-.185-1.114-.27-.264 1.264 4.72 1.482c1.204.286 2.017.43 2.438.43.772 0 1.325-.225 1.658-.675s.5-1.12.5-2l-.035-.72-.097-1.553-.15-2.22-.202-2.7-.254-3.018-.298-3.13.176-.017 1.903 6.4c.707 1.983 1.502 3.704 2.386 5.166s1.854 2.612 2.912 3.448 2.22 1.254 3.482 1.254a3.61 3.61 0 0 0 1.246-.21c.386-.14.72-.336 1-.588a2.82 2.82 0 0 0 .667-.894 2.62 2.62 0 0 0 .245-1.132c0-.526-.114-1.032-.342-1.518s-.588-.915-1.08-1.3h-.14c-.5.4-.956.704-1.395.886s-.904.27-1.394.27a4.05 4.05 0 0 1-1.527-.297 4.51 4.51 0 0 1-1.35-.86c-.666-.608-1.286-1.412-1.86-2.412a24.67 24.67 0 0 1-1.57-3.324l-1.28-3.833-.983-3.912-.666-3.58-.36-2.816-3.667-.456zm33.037 19.983a4.11 4.11 0 0 1-.272 1.507 3.76 3.76 0 0 1-.754 1.221 3.55 3.55 0 0 1-1.15.816 3.5 3.5 0 0 1-1.44.298c-.76 0-1.45-.135-2.07-.404a5.78 5.78 0 0 1-1.667-1.096c-.492-.462-.924-1-1.298-1.615a11.92 11.92 0 0 1-.956-1.955 15.81 15.81 0 0 1-.641-2.123 17.93 17.93 0 0 1-.35-2.122c1.66.116 3.148.318 4.464.605s2.428.655 3.334 1.105 1.6 1 2.08 1.614a3.44 3.44 0 0 1 .719 2.149m3.298-14.087l.272-.15a2.36 2.36 0 0 0 .307-.21c.094-.076.175-.158.246-.245s.105-.173.105-.255c0-.047-.017-.093-.052-.14a14.48 14.48 0 0 0-2.115-2.377c-.755-.673-1.538-1.233-2.35-1.683a10.45 10.45 0 0 0-2.482-1 10.03 10.03 0 0 0-2.49-.324c-1.403 0-2.7.286-3.86.86a9.37 9.37 0 0 0-3.018 2.35c-.842.993-1.5 2.16-1.974 3.5s-.7 2.774-.7 4.306c0 1.252.137 2.503.412 3.754a17.56 17.56 0 0 0 1.193 3.579 16.1 16.1 0 0 0 1.904 3.166 13.28 13.28 0 0 0 2.552 2.544 11.77 11.77 0 0 0 3.14 1.693c1.14.41 2.365.614 3.675.614.866 0 1.7-.117 2.473-.35a6.6 6.6 0 0 0 2.062-1.008c.6-.44 1.06-.98 1.412-1.623s.526-1.374.526-2.193a4.59 4.59 0 0 0-1.166-3.122c-.778-.9-1.85-1.644-3.22-2.263s-2.98-1.12-4.833-1.5-3.856-.663-6-.85v-.3c0-1.497.2-2.865.57-4.104s.903-2.3 1.57-3.185 1.45-1.57 2.35-2.06 1.87-.736 2.912-.736c1.053 0 2.132.26 3.237.78s2.225 1.365 3.36 2.535m18.914 14.094a4.11 4.11 0 0 1-.272 1.507c-.18.468-.433.875-.754 1.22a3.52 3.52 0 0 1-1.15.816c-.445.2-.924.298-1.44.298a5.15 5.15 0 0 1-2.07-.404c-.62-.27-1.175-.634-1.666-1.096s-.925-1-1.3-1.615-.693-1.265-.956-1.955a15.63 15.63 0 0 1-.64-2.123 17.72 17.72 0 0 1-.35-2.122c1.66.116 3.15.318 4.465.605s2.426.655 3.333 1.105 1.6 1 2.08 1.614a3.44 3.44 0 0 1 .719 2.149m3.3-14.087l.27-.15.307-.2c.093-.066.176-.158.246-.245s.105-.173.105-.255c0-.047-.017-.093-.052-.14a14.48 14.48 0 0 0-2.115-2.377 13.04 13.04 0 0 0-2.35-1.683 10.46 10.46 0 0 0-2.483-1c-.843-.215-1.672-.324-2.5-.324-1.404 0-2.7.286-3.86.86a9.38 9.38 0 0 0-3.018 2.35c-.843.993-1.5 2.16-1.974 3.5s-.7 2.774-.7 4.306c0 1.252.137 2.503.412 3.754a17.62 17.62 0 0 0 1.193 3.579 16.46 16.46 0 0 0 1.903 3.166 13.34 13.34 0 0 0 2.553 2.544 11.8 11.8 0 0 0 3.14 1.693c1.14.4 2.366.614 3.675.614a8.61 8.61 0 0 0 2.474-.351c.783-.234 1.47-.57 2.06-1.008a4.97 4.97 0 0 0 1.412-1.623c.352-.643.526-1.374.526-2.193a4.59 4.59 0 0 0-1.167-3.122c-.777-.888-1.85-1.644-3.218-2.263s-2.98-1.12-4.834-1.5a52.91 52.91 0 0 0-6.008-.85v-.3c0-1.497.2-2.865.57-4.104s.904-2.3 1.57-3.185 1.45-1.57 2.35-2.06a5.99 5.99 0 0 1 2.913-.736c1.052 0 2.13.26 3.236.78s2.225 1.365 3.36 2.535m7.74 14.724c0 .48-.035.882-.104 1.2s-.18.587-.325.78a1.2 1.2 0 0 1-.553.413c-.223.083-.485.123-.8.123-.42 0-.923-.06-1.508-.176l-2-.473-.263 1.263 2.394.798 2.115.623 1.7.403c.5.094.877.14 1.158.14.68 0 1.208-.202 1.588-.606s.57-1.096.57-2.078l-.035-.816-.097-1.623-.15-2.254-.2-2.7-.254-2.974-.3-3.062.105-.016c.9 3.017 1.843 5.563 2.86 7.64s2.052 3.76 3.105 5.053 2.1 2.224 3.14 2.797 2.036.86 2.983.86a5.02 5.02 0 0 0 1.895-.368 4.29 4.29 0 0 0 1.622-1.176c.472-.538.85-1.23 1.132-2.078s.42-1.875.42-3.08l-.06-1.4-.15-1.973-.2-2.308-.202-2.395-.15-2.236-.06-1.85c0-.913.038-1.656.114-2.23s.202-1.026.378-1.36.4-.562.7-.685.65-.184 1.07-.184c.608 0 1.24.085 1.894.254s1.316.407 1.983.7l.334-.912c-.422-.34-.954-.684-1.598-1.035a20.84 20.84 0 0 0-2.026-.965 16.04 16.04 0 0 0-2.114-.71c-.7-.182-1.32-.272-1.86-.272-.632 0-1.13.17-1.5.508s-.635.8-.816 1.386-.3 1.27-.35 2.052l-.08 2.526.114 3.395.255 3.324.254 2.87.114 2.06c0 1.368-.257 2.377-.772 3.026s-1.2.975-2.053.975c-.678 0-1.392-.287-2.14-.86s-1.494-1.36-2.236-2.36-1.457-2.18-2.14-3.544a36.44 36.44 0 0 1-1.851-4.42 40.71 40.71 0 0 1-1.368-4.974 34.35 34.35 0 0 1-.685-5.193l-3.667-.456-.28.017.263 3.632.228 4 .185 4.017.14 3.72.088 3.096.025 2.158"/></g><path d="M180.026 818.033c0 .55-.026 1.02-.08 1.412s-.172.7-.36.956-.453.423-.798.534-.805.168-1.378.168a19.9 19.9 0 0 1-1.421-.062l-1.754-.2-.176 1.456 4.43.982c1.233.2 2.254.316 3.062.316.772 0 1.365-.102 1.78-.307s.72-.5.912-.912.307-.898.343-1.483l.053-2-.045-2.06-.123-4.298-.885-29.27-4.158-.527-.316.036.377 9.535.3 8.754.184 8.42.06 8.552m11.217-4.792l-1.737.053-.052 3.77c0 1.135.053 2.1.158 2.92s.324 1.483.657 2 .82.912 1.457 1.158 1.482.368 2.535.368l2.298-.052 2.736-.105 2.957-.106 2.938-.052 4.2.01 3.245.026 2.492.053 1.956.106 1.65.165 1.552.236c.2-.56.298-1.023.298-1.385a1.97 1.97 0 0 0-.973-1.772c-.65-.4-1.6-.613-2.886-.613-1.205 0-2.623.073-4.254.22l-5.518.43-.13-5.542-.167-6.097-.184-6.44-.404-13.095-.184-6.246-4.158-.526-.315.036.263 6.43.228 6.044.192 5.92.14 6.08.088 6.5.035 7.183-2.035.06-2.105.027a53.21 53.21 0 0 1-2-.035c-.62-.023-1.187-.105-1.702-.245a4.23 4.23 0 0 1-1.386-.658c-.4-.3-.754-.72-1.035-1.263s-.494-1.237-.64-2.08-.22-1.87-.22-3.087v-.405z" fill="#fff"/><path d="M175.907 776.57c.054.595.355 1.21 1.063 2.182 6.44 16.012 22.96 10.787 23.512 10.668l4.06-1.088 12.433-3.247-1.722-.167c-1.15-.11-2.528-.4-4.137-.867s-3.116-1.24-4.848-2.19-28.332-24.13-30.362-5.292" fill="#009346"/><path d="M180.093 779.128l-1.5-.53-11.218-4.5c-1.606-.745-1.84-1.112-.7-1.103.596.28 11.172 4.59 11.984 4.9l2.275.87 7.593-5.337-6.4 5.725c.544.177 1.127.35 1.752.517l1.914.507 8.28-4.3-6.972 4.727c.686.152 1.403.325 2.15.52s1.494.37 2.236.526l6.988-3.933-5.592 4.217 16.31 3.008-4.61-.456c-3.073-.304-6.836-.924-11.287-1.863l7.405 5.122-8.92-5.444-2.083-.444a54.47 54.47 0 0 1-2.183-.541l9.473 6.5-10.974-6.925-2.365-.653c-.77-.215-1.562-.456-2.377-.72l9.688 7.85-10.88-8.238z" fill="#f9ae0c"/><path d="M84.92 771.577c0-.7-.267-1.297-.8-1.8s-1.15-.738-1.85-.738c-.518 0-1 .1-1.417.304-.345.163-.73.442-1.157.838a1.96 1.96 0 0 0-.298.343c-.086.127-.13.23-.13.312 0 .152.056.228.168.228.05 0 .142-.116.274-.35a2.13 2.13 0 0 1 .411-.518c.254-.254.523-.452.807-.594a2.63 2.63 0 0 1 1.219-.289c.58 0 1.046.172 1.4.518a1.73 1.73 0 0 1 .533 1.294c0 .315-.096.645-.3 1a2.93 2.93 0 0 1-.472.64l-1.37 1.142-.87.777a2.98 2.98 0 0 0-.601.929c-.147.356-.22.66-.22.914a2.2 2.2 0 0 0 .137.724c.1.26.233.5.426.693.102.1.292.212.572.335s.54.182.784.182a2.15 2.15 0 0 0 .808-.167c.273-.112.4-.223.4-.335 0-.102-.046-.153-.138-.153-.06 0-.2.06-.388.175s-.434.175-.708.175c-.406 0-.72-.126-.944-.38-.183-.214-.275-.488-.275-.823 0-.253.086-.517.26-.8a3.41 3.41 0 0 1 .426-.534c.05-.06.25-.243.594-.548l.472-.4.6-.503.533-.472c.376-.375.64-.696.793-.96a2.29 2.29 0 0 0 .3-1.157m11.644 1.094c0 1.087-.266 1.975-.8 2.665a2.55 2.55 0 0 1-2.124 1.036c-.732 0-1.366-.285-1.904-.853-.63-.66-.945-1.564-.945-2.7 0-.883.224-1.66.67-2.33.548-.822 1.3-1.234 2.254-1.234a2.52 2.52 0 0 1 2.132 1.066c.477.64.716 1.427.716 2.36m.914.152a3.61 3.61 0 0 0-1.097-2.65c-.73-.73-1.624-1.096-2.68-1.096-1.005 0-1.88.365-2.62 1.096s-1.112 1.6-1.112 2.635a3.66 3.66 0 0 0 1.066 2.65 3.48 3.48 0 0 0 2.605 1.097c1.056 0 1.96-.366 2.7-1.097a3.55 3.55 0 0 0 1.127-2.635m9.455-3.573c0-.04-.046-.076-.137-.106h-4.28v7.325h.883v-7.113h3.397c.1-.03.137-.066.137-.106m10.895 2.882c0-.5-.04-.9-.122-1.195a2.36 2.36 0 0 0-.609-1.027 2.77 2.77 0 0 0-1.036-.659 3.2 3.2 0 0 0-1.051-.169 3.84 3.84 0 0 0-1.158.168c-.456.143-.83.364-1.12.664s-.5.62-.632.96a3 3 0 0 0-.198 1.092v4.502h.868v-4.523c0-.813.24-1.462.716-1.95.437-.447.985-.67 1.645-.67.406 0 .74.05 1.005.153s.526.283.785.543a2.21 2.21 0 0 1 .548.879c.107.326.16.745.16 1.255v4.2c0 .08.036.122.107.122l.1-.107v-4.23zm10.872 4.23c0-.04-.025-.076-.076-.106h-2.452v-7.113h-.884v7.113h-2.376c-.08.03-.12.07-.12.12 0 .03.04.06.12.092h5.712c.05-.03.076-.067.076-.107" fill="#00a650"/></g><path d="M133.746 769.155h.868v7.326h-.868v-7.326zm12.52 3.518c0 1.087-.266 1.975-.8 2.665a2.55 2.55 0 0 1-2.124 1.036c-.73 0-1.366-.285-1.904-.853-.63-.66-.945-1.564-.945-2.7 0-.883.224-1.66.67-2.33.548-.822 1.3-1.234 2.254-1.234a2.52 2.52 0 0 1 2.132 1.066c.477.64.716 1.427.716 2.36m.914.152a3.61 3.61 0 0 0-1.097-2.65c-.73-.73-1.624-1.096-2.68-1.096-1.006 0-1.88.365-2.62 1.096s-1.112 1.6-1.112 2.635.356 1.92 1.066 2.65 1.58 1.097 2.605 1.097c1.055 0 1.96-.366 2.7-1.097a3.55 3.55 0 0 0 1.127-2.635m11.732 3.523v-7.14c-.02-.092-.04-.138-.06-.138l-.212.183-6.154 6.67v-6.687c-.04-.06-.087-.1-.138-.1-.06 0-.106.035-.137.106v7.22l.886.002 5.542-6v5.886c0 .082.04.123.122.123.08.02.132-.02.152-.123m9.484-5.286c0-.56-.216-1.033-.648-1.424s-.926-.586-1.484-.586c-.417 0-.775.073-1.074.22s-.627.38-.982.693a1.45 1.45 0 0 0-.237.267c-.066.096-.098.18-.098.252 0 .12.045.182.136.182.04 0 .107-.083.2-.248s.208-.315.35-.445a2.67 2.67 0 0 1 .639-.452 2.18 2.18 0 0 1 .975-.226c.457 0 .83.134 1.12.403a1.34 1.34 0 0 1 .434 1.026c0 .203-.048.4-.145.623s-.25.436-.464.67l-1.104.88-.694.624a2.19 2.19 0 0 0-.48.73c-.117.285-.175.527-.175.73a1.77 1.77 0 0 0 .113.57 1.56 1.56 0 0 0 .328.554c.102.1.257.183.465.274a1.57 1.57 0 0 0 .632.137 1.7 1.7 0 0 0 .64-.137c.224-.1.335-.178.335-.26s-.04-.12-.12-.12c-.04 0-.137.046-.3.137s-.345.137-.578.137c-.326 0-.57-.092-.732-.274s-.244-.406-.244-.67a1.04 1.04 0 0 1 .107-.472c.07-.143.22-.336.442-.58l.853-.777.624-.48.3-.283a4.19 4.19 0 0 0 .647-.799c.148-.25.22-.54.22-.876" fill="#00a650"/><path d="M176.542 831.025a3.52 3.52 0 0 0 3.519 3.519 3.52 3.52 0 0 0 3.518-3.519 3.52 3.52 0 0 0-3.518-3.519 3.52 3.52 0 0 0-3.519 3.519" fill="#009346"/></g></svg>